<?xml version="1.0" encoding="iso-8859-1"?>
<!-- Generator: Adobe Illustrator 19.0.0, SVG Export Plug-In . SVG Version: 6.00 Build 0)  -->
<svg version="1.1" id="Capa_1" xmlns="http://www.w3.org/2000/svg" xmlns:xlink="http://www.w3.org/1999/xlink" x="0px" y="0px"
	 viewBox="0 0 512 512" style="enable-background:new 0 0 512 512;" xml:space="preserve">
<polygon style="fill:#77767E;" points="255.168,0 25.808,133.404 25.808,378.603 256.747,512 486.192,378.596 486.192,133.397 "/>
<polygon style="fill:#ACABB1;" points="486.192,133.397 256.747,266.801 62.482,154.586 25.808,133.404 255.168,0 408.906,56.421 
	"/>
<polygon style="fill:#77767E;" points="486.192,133.397 486.192,378.596 256.747,512 256.747,266.801 324.828,227.217 
	411.922,136.652 "/>
<g>
	<polygon style="fill:#898890;" points="256.747,266.801 256.747,512 25.808,378.603 25.808,133.404 115.987,125.597 	"/>
	<path style="fill:#898890;" d="M448.208,209.068c15.448-8.919,27.998-8.934,28.025,0c0.025,8.915-12.485,23.368-27.933,32.287
		c-15.448,8.919-27.998,8.934-28.025,0.02C420.25,232.441,432.76,217.988,448.208,209.068"/>
</g>
<path style="fill:#57565C;" d="M378.78,291.805c10.539-6.085,19.119-5.882,19.137,0.469s-8.533,16.444-19.072,22.528
	c-10.557,6.095-19.119,5.882-19.137-0.469S368.223,297.899,378.78,291.805"/>
<g>
	<path style="fill:#77767E;" d="M168.992,303.023c10.539,6.085,19.073,16.168,19.054,22.519c-0.018,6.351-8.581,6.544-19.12,0.459
		c-10.556-6.095-19.09-16.158-19.072-22.508C149.873,297.141,158.436,296.928,168.992,303.023"/>
	<path style="fill:#77767E;" d="M56.732,334.874c9.077,6.085,16.428,16.168,16.412,22.519s-7.391,6.544-16.468,0.459
		c-9.093-6.095-16.443-16.158-16.427-22.508C40.266,328.992,47.641,328.779,56.732,334.874"/>
</g>
<g>
	<path style="fill:#57565C;" d="M207.872,422.069c1.084,0.626,2.19,1.353,3.31,2.182c9.676,7.187,16.674,19.267,15.62,26.996
		c-0.932,6.853-7.842,8.011-16.121,3.232c-1.083-0.625-2.19-1.353-3.309-2.182c-9.676-7.187-16.674-19.267-15.62-27.016
		C192.683,418.446,199.594,417.289,207.872,422.069"/>
	<path style="fill:#57565C;" d="M64.576,211.32c0.488,0.281,0.986,0.609,1.49,0.982c4.356,3.235,7.507,8.674,7.032,12.153
		c-0.419,3.085-3.531,3.607-7.258,1.455c-0.487-0.281-0.986-0.609-1.49-0.982c-4.356-3.235-7.507-8.674-7.032-12.163
		C57.738,209.689,60.848,209.169,64.576,211.32"/>
</g>
<path style="fill:#ACABB1;" d="M91.693,297.508c4.875,2.814,8.825,10.252,8.808,16.603c-0.018,6.331-3.998,9.19-8.872,6.375
	c-4.875-2.814-8.808-10.241-8.79-16.572C82.856,297.562,86.819,294.694,91.693,297.508"/>
<path style="fill:#57565C;" d="M312.004,410.494c9.372-5.411,16.99-4.693,17.008,1.599c0.018,6.311-7.571,15.81-16.943,21.221
	c-9.372,5.412-16.974,4.682-16.991-1.629C295.059,425.393,302.632,415.905,312.004,410.494"/>
<g>
	<path style="fill:#898890;" d="M436.799,325.343c9.372-5.411,16.973-4.781,16.99,1.412c0.018,6.193-7.555,15.603-16.927,21.014
		c-9.372,5.411-16.99,4.771-17.008-1.422C419.837,340.154,427.427,330.754,436.799,325.343"/>
	<path style="fill:#898890;" d="M295.88,300.139c4.995-2.884,9.04-1.249,9.054,3.662c0.014,4.891-4.008,11.185-9.003,14.069
		c-4.978,2.874-9.023,1.238-9.036-3.653C286.88,309.306,290.903,303.012,295.88,300.139"/>
</g>
<g>
</g>
<g>
</g>
<g>
</g>
<g>
</g>
<g>
</g>
<g>
</g>
<g>
</g>
<g>
</g>
<g>
</g>
<g>
</g>
<g>
</g>
<g>
</g>
<g>
</g>
<g>
</g>
<g>
</g>
</svg>
