<svg id="Capa_1" enable-background="new 0 0 511.382 511.382" height="512" viewBox="0 0 511.382 511.382" width="512" xmlns="http://www.w3.org/2000/svg"><g><path d="m190.327 283.478-28.361 77.506c-6.639-5.324-14.226-9.693-22.66-12.779-41.675-15.25-87.821 6.172-103.071 47.847s6.172 87.822 47.847 103.071c41.675 15.25 87.821-6.172 103.071-47.847l54.525-149.008zm-38.516 154.866c-8.107 22.156-32.641 33.545-54.797 25.438s-33.545-32.641-25.438-54.797 32.641-33.545 54.797-25.438c22.156 8.108 33.545 32.641 25.438 54.797z" fill="#fc5a36"/><path d="m114.078 499.122c-41.67-15.25-63.09-61.39-47.84-103.07 10.08-27.52 33.62-46.21 60.46-51.33-37.99-7.28-76.74 13.83-90.46 51.33-15.25 41.68 6.17 87.82 47.84 103.07 14.16 5.18 28.84 6.13 42.64 3.49-4.23-.8-8.46-1.96-12.64-3.49zm76.25-215.64-28.363 77.502c9.034 8.438 17.433 19.95 18.933 31.138l35.89-98.96z" fill="#db3915"/><path d="m204.723 259.552h34.368v34.368h-34.368z" fill="#d9ecfd" transform="matrix(.939 .344 -.344 .939 108.611 -59.403)"/><path d="m272.341 259.552h34.368v34.368h-34.368z" fill="#c5e2ff" transform="matrix(-.939 .344 -.344 -.939 656.516 437.127)"/><path d="m291.263 7.497c28.36 10.378 42.938 41.781 32.561 70.142l-70.336 192.355-51.351-18.791z" fill="#c5e2ff"/><path d="m475.198 396.052c-15.25-41.675-61.396-63.097-103.071-47.847-8.434 3.086-16.021 7.455-22.66 12.779l-28.361-77.506-51.351 18.791 54.525 149.008c15.25 41.675 61.396 63.097 103.071 47.847s63.097-61.397 47.847-103.072zm-60.779 67.73c-22.156 8.108-46.69-3.281-54.797-25.438-8.107-22.156 3.281-46.69 25.438-54.797 22.156-8.108 46.69 3.281 54.797 25.438 8.107 22.156-3.282 46.689-25.438 54.797z" fill="#fc5a36"/><path d="m354.278 451.272-54.52-149 24.89-9.11-3.54-9.68-51.35 18.79 54.52 149c13.72 37.5 52.46 58.6 90.44 51.34-26.83-5.13-50.37-23.82-60.44-51.34z" fill="#db3915"/><path d="m220.169 7.497c-28.36 10.378-42.938 41.781-32.561 70.142l70.336 192.355 51.351-18.791z" fill="#d9ecfd"/><g><g><path d="m130.936 377.274c-21.137-8.848-47.81-.862-60.681 18.014-17.546 25.552-6.652 62.824 22.225 74.773 3.826 1.467 7.092.113 9.798-4.062 1.584-3.827-.235-8.214-4.062-9.798-20.367-8.429-27.994-34.363-15.582-52.444 9.397-13.781 27.496-18.926 42.538-12.635 17.495 7.234 25.908 27.319 19.594 44.639-3.381 9.227-10.524 16.674-19.598 20.431-3.827 1.585-5.645 5.973-4.06 9.799 1.584 3.827 5.972 5.646 9.799 4.061 12.938-5.357 23.122-15.975 27.947-29.142 8.897-24.407-3.953-53.725-27.918-63.636z"/><path d="m482.241 393.475c-9.559-26.121-31.231-46.372-57.973-54.173-3.974-1.156-8.14 1.124-9.3 5.1-1.16 3.977 1.123 8.141 5.1 9.301 22.184 6.471 40.16 23.266 48.086 44.927 13.803 37.726-5.659 79.646-43.384 93.45-36.984 13.535-79.887-6.317-93.449-43.384l-51.943-141.957 37.264-13.636 25.782 70.457c2.791 5.103 6.702 6.195 11.733 3.275 10.759-8.509 22.848-13.653 36.269-15.434 4.109-.523 7.016-4.278 6.492-8.388-.523-4.107-4.276-7.011-8.388-6.491-12.72 1.673-24.517 5.896-35.391 12.668l-24.988-68.285c-2.42-6.033-7.935-5.749-12.116-3.553l-6.658-18.194c4.611-1.02 8.353-3.227 6.964-10.533l-23.529-64.332 38.059-104.078c11.776-32.207-4.834-67.986-37.028-79.759-3.889-1.422-8.196.577-9.619 4.468l-28.507 77.942-28.505-77.94c-1.438-3.935-6.04-5.97-9.914-4.359-15.461 5.739-27.79 17.129-34.74 32.102-6.994 15.066-7.702 31.954-1.994 47.55l15.08 41.24c2.59 4.285 5.796 5.774 9.62 4.468 3.89-1.423 5.891-5.729 4.468-9.619l-15.081-41.243c-4.332-11.834-3.794-24.647 1.512-36.08 4.238-9.13 11.118-16.496 19.743-21.299l83.773 229.051-37.263 13.636-41.454-113.364c-1.423-3.891-5.73-5.892-9.619-4.469-3.89 1.422-5.891 5.729-4.469 9.619l11.749 32.131-23.529 64.338c.031 6.001 2.351 9.511 6.96 10.532l-6.656 18.191c-4.18-2.196-8.219-1.012-12.115 3.553l-24.988 68.289c-46.328-29.009-108.563-11.388-129.104 44.284-16.768 45.447 6.821 96.046 52.313 112.692 44.853 16.415 96.253-7.387 112.692-52.313l54.525-149.008c1.897-5.185-2.589-9.27-6.96-10.533l6.656-18.191c4.752 1.768 9.85 1.762 14.6.001l6.657 18.194c-4.609 1.021-6.929 4.531-6.959 10.532l54.52 149c16.448 44.952 67.741 68.766 112.691 52.315 45.491-16.645 68.96-67.198 52.315-112.691zm-186.71-375.794c19.854 11.098 29.313 35.343 21.253 57.385l-31.958 87.392-21.123-57.755zm-115.422 431.018c-13.803 37.725-55.725 57.186-93.451 43.382-37.724-13.805-57.185-55.727-43.38-93.452 10.792-29.492 38.768-47.821 68.49-47.821 17.02.186 32.189 5.529 45.506 16.027 5.031 2.923 8.943 1.832 11.735-3.273l25.783-70.463 37.265 13.636zm54.22-177.73-6.656 18.189-18.188-6.655 6.656-18.189zm-7.72-64.842 19.437 53.156-34.289-12.547zm68.683 58.187 6.656 18.189-18.189 6.655-6.656-18.189z"/><path d="m352.578 440.922c7.439 20.33 26.723 32.965 47.211 32.965 5.718 0 11.532-.985 17.207-3.062 26.005-9.516 39.419-38.413 29.904-64.418-9.516-26.004-38.413-39.417-64.418-29.903-26.005 9.516-39.419 38.413-29.904 64.418zm80.235-29.36c6.603 18.046-2.926 38.573-20.971 45.178-18.045 6.602-38.574-2.926-45.177-20.972s2.875-38.715 20.971-45.178c19.512-6.968 39.96 6.715 45.177 20.972z"/></g><path d="m259.916 203.321c-4.142 0-7.5-3.358-7.5-7.5 0-4.142 3.358-7.5 7.5-7.5 4.142 0 7.5 3.358 7.5 7.5 0 4.142-3.358 7.5-7.5 7.5z"/></g></g></svg>